# xmcd CD database file
#
# Track frame offsets:
#	150
#	21898
#	51050
#	71111
#	100566
#	130421
#	156429
#	189977
#	217113
#
# Disc length: 3236 seconds
#
# Revision: 0
# Processed by: cddbd v1.5.2PL0 Copyright (c) Steve Scherf et al.
# Submitted via: CDex 1.70beta2
#
DISCID=7f0ca209
DTITLE=Myron Walden In This World - What We Share
DYEAR=2010
DGENRE=Jazz
TTITLE0=Gentle Embrace
TTITLE1=Tama
TTITLE2=With Every Breath
TTITLE3=A Love Eternal
TTITLE4=The Promise Of Tomorrow
TTITLE5=Endless
TTITLE6=In Search Of The Lost City
TTITLE7=The Fall Of Summer
TTITLE8=Forgotten Memories
EXTD=YEAR: 2010
EXTT0=
EXTT1=
EXTT2=
EXTT3=
EXTT4=
EXTT5=
EXTT6=
EXTT7=
EXTT8=
PLAYORDER=
